<svg id="Layer_1" data-name="Layer 1" xmlns="http://www.w3.org/2000/svg" viewBox="0 0 38.82 190.77"><defs><style>.cls-1{fill:#231f20;}</style></defs><title>rubik-ulta</title><path class="cls-1" d="M15.74,12.47h-9V19a4,4,0,0,1-.69,2.67,2.91,2.91,0,0,1-2.3.79,3.05,3.05,0,0,1-2.36-.79A3.92,3.92,0,0,1,.69,19V3.52A4.07,4.07,0,0,1,1.41.8,3.06,3.06,0,0,1,3.77,0a2.91,2.91,0,0,1,2.3.79,4.24,4.24,0,0,1,.69,2.75V5.65H20.23V4.45a4,4,0,0,1,.71-2.69A3,3,0,0,1,23.28,1a3,3,0,0,1,2.33.76,4.06,4.06,0,0,1,.69,2.7v5.91A1.88,1.88,0,0,1,26,11.5a1,1,0,0,1-.87.42H21a22.22,22.22,0,0,1,4.62,5.64A11.77,11.77,0,0,1,27,23.19a7,7,0,0,1-1.23,4.36,4,4,0,0,1-3.32,1.6A3.45,3.45,0,0,1,19.83,28a4,4,0,0,1-1-2.85,6.44,6.44,0,0,1,.91-3,6.45,6.45,0,0,0,.92-2.37,6,6,0,0,0-1.19-3.13A28.9,28.9,0,0,0,15.74,12.47Z"/><path class="cls-1" d="M20.23,52.94V52.5A3,3,0,0,1,21,50.24a3.08,3.08,0,0,1,2.27-.76,3,3,0,0,1,2.33.77,4.08,4.08,0,0,1,.69,2.69v5.24A1.86,1.86,0,0,1,26,59.34a1,1,0,0,1-.87.42H6.76v.44A3.17,3.17,0,0,1,6,62.49a3,3,0,0,1-2.22.79,3,3,0,0,1-2.37-.81,4.1,4.1,0,0,1-.71-2.71V55.1A1.86,1.86,0,0,1,1,53.9a1.07,1.07,0,0,1,.91-.43H4.05a8.78,8.78,0,0,1-3-3.26,9.76,9.76,0,0,1-1-4.53q0-4.45,2.68-6.62T11,36.9h9.26v-.47A3.09,3.09,0,0,1,21,34.15a3.09,3.09,0,0,1,2.27-.77,3,3,0,0,1,2.33.79,4.15,4.15,0,0,1,.69,2.73v5.21A1.77,1.77,0,0,1,26,43.24a1.06,1.06,0,0,1-.87.39H12.22c-2.27,0-3.87.31-4.79.94A3.48,3.48,0,0,0,6,47.68a4.79,4.79,0,0,0,1.71,3.78,6.54,6.54,0,0,0,4.47,1.48Z"/><path class="cls-1" d="M23.8,79.21a9.75,9.75,0,0,1,1.83,3.16,10.93,10.93,0,0,1,.67,3.82,12.54,12.54,0,0,1-3.81,9.44,13.49,13.49,0,0,1-9.77,3.67,12.18,12.18,0,0,1-9.08-3.74A13,13,0,0,1,0,86.14a10.87,10.87,0,0,1,.93-4.67,7.89,7.89,0,0,1,2.78-3.23H1.88A1,1,0,0,1,1,77.81,2,2,0,0,1,.69,76.6V72.34a4,4,0,0,1,.71-2.68,3.07,3.07,0,0,1,2.37-.79A3.06,3.06,0,0,1,6,69.63a3.07,3.07,0,0,1,.76,2.26v.45H30.82v-.45a2.75,2.75,0,0,1,3.07-3.07,3,3,0,0,1,2.36.8A4.07,4.07,0,0,1,37,72.34v5.18a1.73,1.73,0,0,1-.43,1.29,2.07,2.07,0,0,1-1.4.4Zm-3.4,6.12a5.72,5.72,0,0,0-2-4.5A7.56,7.56,0,0,0,13.19,79a7.68,7.68,0,0,0-5.25,1.78,5.7,5.7,0,0,0-2,4.51A5.77,5.77,0,0,0,8,89.86a7.66,7.66,0,0,0,5.24,1.79,7.5,7.5,0,0,0,5.15-1.8A5.77,5.77,0,0,0,20.4,85.33Z"/><path class="cls-1" d="M6.76,119.77v6a4.16,4.16,0,0,1-.69,2.71,2.88,2.88,0,0,1-2.3.81,3,3,0,0,1-2.36-.82,4.08,4.08,0,0,1-.72-2.7V107a4.08,4.08,0,0,1,.72-2.7,3,3,0,0,1,2.36-.82,3,3,0,0,1,2.3.79A4.19,4.19,0,0,1,6.76,107v6H20.23v-3.13a4,4,0,0,1,.71-2.66,3,3,0,0,1,2.34-.8,3,3,0,0,1,2.33.77,4.08,4.08,0,0,1,.69,2.69v8.34a1.92,1.92,0,0,1-.32,1.19,1,1,0,0,1-.87.42Zm32.06-4a3.55,3.55,0,0,1-.77,2.69q-.78.66-3.72.66c-1.88,0-3-.2-3.5-.59s-.68-1.34-.68-2.82.21-2.37.64-2.78a3.71,3.71,0,0,1,2.55-.63c2.36,0,3.87.22,4.51.64S38.82,114.32,38.82,115.78Z"/><path class="cls-1" d="M15.74,144.75,21,150.6a2.17,2.17,0,0,1,.74-1.18,2.72,2.72,0,0,1,1.47-.32,3.17,3.17,0,0,1,2.39.75,4,4,0,0,1,.69,2.66v6.13a4.07,4.07,0,0,1-.69,2.67,3,3,0,0,1-2.33.79,2.75,2.75,0,0,1-1.78-.46,3.26,3.26,0,0,1-.83-1.87,7.11,7.11,0,0,0-.83-2.31,11.19,11.19,0,0,0-1.94-2.34l-2-2-9.09,7.31v.7A3.43,3.43,0,0,1,6,163.57a2.93,2.93,0,0,1-2.24.8,3.06,3.06,0,0,1-2.36-.8,4.07,4.07,0,0,1-.72-2.72v-6.79a4.38,4.38,0,0,1,.61-2.6,2.28,2.28,0,0,1,1.94-.81,2.48,2.48,0,0,1,1.6.48,3.62,3.62,0,0,1,1,1.55l5.51-4.52-3.13-3.41H2.52a2.16,2.16,0,0,1-1.44-.36,1.73,1.73,0,0,1-.39-1.3v-5a3.85,3.85,0,0,1,.72-2.62,3.09,3.09,0,0,1,2.36-.79,3.05,3.05,0,0,1,2.23.75,3,3,0,0,1,.76,2.22v.44H30.82v-.44a3,3,0,0,1,.8-2.25,3.15,3.15,0,0,1,2.27-.77,3.05,3.05,0,0,1,2.34.8A3.9,3.9,0,0,1,37,138.1v5a1.73,1.73,0,0,1-.39,1.3,2.16,2.16,0,0,1-1.44.36Z"/><path class="cls-1" d="M3.73,190.77a2.94,2.94,0,0,1-2.14-.87,2.84,2.84,0,0,1-.9-2.12V173.1a2.81,2.81,0,0,1,.9-2.14,3,3,0,0,1,2.14-.85,3,3,0,0,1,2.16.85,2.86,2.86,0,0,1,.87,2.14v14.68a2.89,2.89,0,0,1-.87,2.12A2.93,2.93,0,0,1,3.73,190.77Z"/></svg>