<svg id="Layer_1" data-name="Layer 1" xmlns="http://www.w3.org/2000/svg" viewBox="0 0 190.77 38.82"><defs><style>.cls-1{fill:#fff;}</style></defs><title>rubik</title><path class="cls-1" d="M12.47,23.08v9H19a4,4,0,0,1,2.67.69,2.93,2.93,0,0,1,.79,2.31,3,3,0,0,1-.79,2.35,3.92,3.92,0,0,1-2.67.72H3.52A4.07,4.07,0,0,1,.8,37.41,3,3,0,0,1,0,35.06a2.93,2.93,0,0,1,.79-2.31,4.24,4.24,0,0,1,2.75-.69H5.65V18.59H4.45a4.06,4.06,0,0,1-2.69-.7A3,3,0,0,1,1,15.55a3,3,0,0,1,.76-2.33,4.06,4.06,0,0,1,2.7-.69h5.91a1.88,1.88,0,0,1,1.16.31,1.06,1.06,0,0,1,.42.88v4.1a22.29,22.29,0,0,1,5.64-4.63,11.87,11.87,0,0,1,5.63-1.38A7,7,0,0,1,27.55,13a4,4,0,0,1,1.6,3.31A3.49,3.49,0,0,1,28,19a4,4,0,0,1-2.85,1,6.47,6.47,0,0,1-3-.92,6.36,6.36,0,0,0-2.37-.91,5.89,5.89,0,0,0-3.13,1.19A28.15,28.15,0,0,0,12.47,23.08Z"/><path class="cls-1" d="M52.94,18.59H52.5a3,3,0,0,1-2.26-.77,3.12,3.12,0,0,1-.76-2.27,3,3,0,0,1,.77-2.33,4.08,4.08,0,0,1,2.69-.69h5.24a1.86,1.86,0,0,1,1.16.31,1.06,1.06,0,0,1,.42.88V32.06h.44a3.13,3.13,0,0,1,2.29.78,3,3,0,0,1,.79,2.22,3,3,0,0,1-.81,2.36,4,4,0,0,1-2.71.71H55.1a1.92,1.92,0,0,1-1.2-.33,1.09,1.09,0,0,1-.43-.92v-2.1a8.67,8.67,0,0,1-3.26,3,9.64,9.64,0,0,1-4.53,1q-4.45,0-6.62-2.69T36.9,27.85V18.59h-.47a3.09,3.09,0,0,1-2.28-.77,3.12,3.12,0,0,1-.77-2.27,3,3,0,0,1,.79-2.33,4.15,4.15,0,0,1,2.73-.69h5.21a1.77,1.77,0,0,1,1.13.31,1.09,1.09,0,0,1,.39.88V26.6c0,2.28.31,3.87.94,4.8a3.5,3.5,0,0,0,3.11,1.38,4.81,4.81,0,0,0,3.78-1.7,6.58,6.58,0,0,0,1.48-4.48Z"/><path class="cls-1" d="M79.21,15a9.75,9.75,0,0,1,3.16-1.83,11.16,11.16,0,0,1,3.82-.66,12.54,12.54,0,0,1,9.44,3.81A13.47,13.47,0,0,1,99.3,26.1a12.17,12.17,0,0,1-3.74,9.08,13,13,0,0,1-9.42,3.64,11,11,0,0,1-4.67-.92,7.84,7.84,0,0,1-3.23-2.79v1.83a1,1,0,0,1-.43.87,2,2,0,0,1-1.21.32H72.34a4,4,0,0,1-2.68-.71,3.06,3.06,0,0,1-.79-2.36,3.08,3.08,0,0,1,.76-2.24,3.12,3.12,0,0,1,2.26-.76h.45V8h-.45a3.07,3.07,0,0,1-2.28-.79,3.09,3.09,0,0,1-.79-2.29,3,3,0,0,1,.8-2.35,4.07,4.07,0,0,1,2.72-.72h5.18a1.69,1.69,0,0,1,1.29.43,2,2,0,0,1,.4,1.4Zm6.12,3.41a5.75,5.75,0,0,0-4.5,2A7.58,7.58,0,0,0,79,25.63a7.64,7.64,0,0,0,1.78,5.25,6,6,0,0,0,9,0,7.64,7.64,0,0,0,1.79-5.24,7.52,7.52,0,0,0-1.8-5.15A5.76,5.76,0,0,0,85.33,18.43Z"/><path class="cls-1" d="M119.77,32.06h6a4.16,4.16,0,0,1,2.71.69,2.9,2.9,0,0,1,.81,2.31,3,3,0,0,1-.82,2.35,4.08,4.08,0,0,1-2.7.72H107a4.08,4.08,0,0,1-2.7-.72,3,3,0,0,1-.82-2.35,3,3,0,0,1,.79-2.31,4.19,4.19,0,0,1,2.73-.69h6V18.59h-3.13a4,4,0,0,1-2.66-.7,3,3,0,0,1-.8-2.34,3,3,0,0,1,.77-2.33,4.08,4.08,0,0,1,2.69-.69h8.34a1.92,1.92,0,0,1,1.19.31,1.06,1.06,0,0,1,.42.88ZM115.78,0a3.51,3.51,0,0,1,2.69.78c.44.51.66,1.75.66,3.71s-.2,3.05-.59,3.5-1.34.68-2.82.68-2.37-.21-2.78-.63a3.74,3.74,0,0,1-.63-2.55c0-2.37.22-3.87.64-4.52S114.32,0,115.78,0Z"/><path class="cls-1" d="M144.75,23.08l5.85-5.26a2.23,2.23,0,0,1-1.18-.75,2.67,2.67,0,0,1-.32-1.47,3.14,3.14,0,0,1,.75-2.38,4,4,0,0,1,2.66-.69h6.13a4.07,4.07,0,0,1,2.67.69,3,3,0,0,1,.79,2.33,2.74,2.74,0,0,1-.46,1.77,3.2,3.2,0,0,1-1.87.83,7.35,7.35,0,0,0-2.31.83,11.51,11.51,0,0,0-2.34,1.94l-2,2,7.31,9.09h.7a3.43,3.43,0,0,1,2.41.75,3,3,0,0,1,.8,2.25,3,3,0,0,1-.8,2.35,4.07,4.07,0,0,1-2.72.72h-6.79a4.31,4.31,0,0,1-2.6-.61,2.26,2.26,0,0,1-.81-1.94,2.47,2.47,0,0,1,.48-1.59,3.45,3.45,0,0,1,1.55-1l-4.52-5.52-3.41,3.13V36.3a2.16,2.16,0,0,1-.36,1.44,1.73,1.73,0,0,1-1.3.39h-5a3.85,3.85,0,0,1-2.62-.72,3.07,3.07,0,0,1-.79-2.35,3.08,3.08,0,0,1,.75-2.24,3,3,0,0,1,2.22-.76h.44V8h-.44a3,3,0,0,1-2.25-.81,3.15,3.15,0,0,1-.77-2.27,3.05,3.05,0,0,1,.8-2.34,3.9,3.9,0,0,1,2.66-.73h5a1.77,1.77,0,0,1,1.3.38,2.17,2.17,0,0,1,.36,1.45Z"/><path class="cls-1" d="M190.77,35.1a3,3,0,0,1-.87,2.14,2.87,2.87,0,0,1-2.12.89H173.1a2.84,2.84,0,0,1-2.14-.89,3.16,3.16,0,0,1,0-4.31,2.86,2.86,0,0,1,2.14-.87h14.68a2.89,2.89,0,0,1,2.12.87A2.94,2.94,0,0,1,190.77,35.1Z"/></svg>